<svg xmlns="http://www.w3.org/2000/svg" xmlns:xlink="http://www.w3.org/1999/xlink" width="80" height="68" viewBox="0 0 80 68"><defs><path id="a" d="M.275.332h79.63V67.87H.274z"/></defs><g fill="none" fill-rule="evenodd"><mask id="b" fill="#fff"><use xlink:href="#a"/></mask><path fill="#FFF" d="M62.953 15.2c2.217-3.3 1.071-8.76-7.754-7.74-3.466.402-6.277 2.775-8.56 5.999-3.136-1.422-5.532-2.605-7.442-3.611.775-.545 1.523-1.04 2.21-1.497a11.604 11.604 0 0 0 3.805 1.218c5.08.673 5.426-6.923-1.379-3.924-.683.3-1.347.64-2 1.007a12.478 12.478 0 0 1-3.232-2.992c.167-.266.326-.525.47-.79 1.884-3.353-4.718-3.311-3.35-.306.21.456.452.898.721 1.32a13.049 13.049 0 0 1-2.859 2.842c-1.017-.564-1.937-1.047-2.956-1.476-5.072-2.149-9.308 3.959-1.502 4.25 1.69.07 3.261-.387 4.66-1.156.933.497 1.964 1.061 3.058 1.653-1.661 1.258-3.356 2.604-5.177 3.924-9.605-8.398-20.745-2.277-18.903 4.652-1.854 1.728-3.377 3.651-4.084 5.596-7.438-.075-9.904 8.568-6.348 14.629C-2.1 44.074.51 55.422 11.344 53.256c3.427 2.843 7.683 2.85 11.519 1.135 1.327 1.517 2.18 2.884 2.981 4.054-2.148 2.574 1.717 8.864 7.718 6.331-.546 1.407-.594 3.094.72 3.094 1.322 0 2.658-.319 1.987-2.666 1.598.919 3.523 1.415 6.056.966 2.14-.381 3.137-1.707 3.26-3.088 5.15-.944 7.656-2.76 10.95-6.317 4.25 1.959 9.528-.308 11.595-2.93.13.019.262.04.402.053 9.1 1.055 10.519-7.827 7.862-12.853 5.973-4.434 3.965-16.505-3.315-18.79-.388-3.604-4.839-7.61-10.126-7.045zm-18.08-8.814c2.79-1.06 4.291 1.612.678 1.53-.843-.02-1.683-.245-2.478-.598.727-.435 1.344-.755 1.8-.932M28.896 8.372c-3.35-.231-2.823-2.666.119-2.21.609.095 1.75.612 3.26 1.387-1.108.571-2.265.897-3.379.823m41.758 14.764a4.02 4.02 0 0 1-.165 1.333c-.713 2.468-4.154-.973-.41-1.305.195-.02.388-.028.575-.028M50.41 11.943c2.498-2.68 7.786-3.802 9.517-.518 1.093 2.08.008 4.291-2.934 4.782-3.497-5.04-6.055-4.053-6-.878-.32-.116-1.724-.714-2.188-.911.292-.883 1.134-1.973 1.605-2.475m3.4 5.67a11.1 11.1 0 0 0 1.329.218c.102.015.206.02.311.028.898 2.638 1.563 6.841 2.076 10.534-.458.06-.934.142-1.435.265-.088-4.161-1.535-8.467-2.282-11.044m-.07 15.24c-1.12 2.951-4.97-.598.043-2.44a1.69 1.69 0 0 1 .248-.083c.034 1.048-.055 1.911-.291 2.523m-.325-16.804c-.045-.437-.045-.766.228-.823.398-.082.776.428 1.121 1.027a10.134 10.134 0 0 1-1.349-.204m-4.97-.224c.907.38 1.793.72 2.638 1.013.088.544.228 1.128.422 1.734 1.267 3.91 2.214 7.834 2.464 10.725-.173.06-.346.129-.527.197-8.131 3.23-.04 9.677 1.946 4.08.418-1.18.643-2.448.699-3.754.574-.082 1.114-.108 1.627-.082.158 1.163.296 2.244.428 3.17.27 1.917.56 4.801 1.156 7.814a9.957 9.957 0 0 1-2.485.054 9.212 9.212 0 0 0-.103-.687c-.672-3.686-4.556.374-1.655 1.32.104 3.447-1.017 6.514-2.789 8.588-2.16-3.937-3.53-9.52-4.451-15.444-1.26-8.092-.43-14.349.63-18.728m2.174 35.688c-1.91 1.34-4.261 1.894-6.516.806 1.678-2.21 1.703-4.573-.514-5.448-3.766-1.487-6.864 3.28-2.197 6.65-1.327 1.297-2.72 2.277-2.79 2.665-.027-.34-.843-1.318-1.716-2.597 4.392-2.316 2.794-6.58-.415-6.856-2.362-.204-5.247 1.965-2.575 6.23-2.215.598-4.97.558-6.825-1.286.263-.225.527-.462.776-.707 5.543-5.387 7.932-17.185 7.212-27.032 1.993 4.835 2.824 9.548 3.01 10.778-.69 1.762-.407 3.686.865 3.686 1.676 0 1.96-.986 1.558-3.114.838-4.033 1.995-8.725 3.78-13.153-.928 11.33 1.666 22.694 6.347 29.378M43.71 50.08c-.124.49-.616 1.15-.906 1.613-.222-.156-.4-.343-.595-.553-2.585-2.773 2.235-3.95 1.501-1.06m-7.753 2.061c-.484-.87-.843-1.729-.775-2.401.186-1.83 2.927-1.299 2.313.966-.12.44-.693.972-1.538 1.435m-.934-44.598a13.832 13.832 0 0 0 2.423-2.306 12.884 12.884 0 0 0 2.742 2.408c-.756.482-1.496 1-2.237 1.537a149.104 149.104 0 0 1-2.928-1.64m3.017 3.115c2.466 1.333 5.172 2.768 7.802 3.999-3.08 4.863-5.122 11.187-6.506 15.757-1.289-7.4-3.801-12.493-6.915-15.744 1.805-1.298 3.766-2.72 5.612-4.012m-12.651 1.952c1.069.331 2.864 1.479 3.703 3.086a42.544 42.544 0 0 1-3.786 2.218c0-2.264.02-4.196.083-5.304m-2.943-.674c.38.034.755.082 1.116.15-2.265.646-5.788 2.462-8.888 4.876-.284-2.482 2.153-5.488 7.772-5.026m.7 17.778c-.256.013-.534.04-.81.08a17.954 17.954 0 0 0-2.817.593c.117-3.285.291-6.42.672-9.046a20.221 20.221 0 0 0 2.981-.965c-.032 3.074-.04 6.57-.026 9.338m-5.19-9.699c-1.463-.197-2.451-.952-2.944-1.924 1.842-1.496 3.932-2.768 5.863-3.693-1.44 1.292-2.338 3.257-2.92 5.617m2.485-.129c.546-2.849 1.418-4.91 2.852-5.584-.043 1.048-.077 2.7-.105 4.625-.644.304-2.123.83-2.747.96m-10.5 5.827c.234.069.471.156.713.273 2.243 1.06-.547 3.175-.728.66-.02-.314-.02-.626.015-.933m.22 26.129c-4.49.733-8.977-6.298-6.477-11.405a8.215 8.215 0 0 0 2.351 1.51c5.566 2.407 5.912-8.848-1.064-5.36-.27.137-.526.287-.774.456-2.485-4.713.15-11.078 4.13-11.486-.137.925-.135 1.88.256 2.761 1.538 3.459 6.923-1.354 3.483-3.285a6.962 6.962 0 0 0-1.843-.72c.506-1.605 1.592-3.157 2.991-4.577.852 1.516 2.485 2.04 4.39 1.979-.514 2.937-.66 6.338-.776 9.765-5.98 3.265-5.648 9.8-.866 11.887-.208 1.11-.462 2.144-.81 3.074-5.536-1.394-6.596 2.592-4.99 5.4m-5.01-13.39c.192-.19.4-.374.622-.544 2.685-2.081 3.251 3.043.802 1.89-.624-.293-1.032-.863-1.424-1.345m11.628-5.203c-.097 2.829-.201 5.63-.521 8.16-2.553-1.89-2.851-5.733.52-8.16m-4.32 17.457c-1.432-1.938-.822-3.762 2.01-2.687-.618 1.184-1.297 2.067-2.01 2.687m1.356 1.36c1.026-.762 1.899-1.795 2.618-3.033l.125.081c2.222 1.422 3.862 2.775 5.143 4.04-3.483 1.259-6.911-.197-7.886-1.088m9.802.142c-2.083-2.44-4.346-4.135-6.27-5.005.428-1 .775-2.088 1.066-3.223 1.39.135 3.01-.027 4.824-.578-.306 2.645-.145 5.841 1.246 8.18a7.868 7.868 0 0 1-.866.626m.388-12.383a15.208 15.208 0 0 0-.527 1.986c-1.785.707-3.382.856-4.726.625a35.11 35.11 0 0 0 .582-5.501c.046-1.674.09-3.36.145-5.032.836-.28 1.792-.498 2.858-.64.29-.041.561-.069.816-.089.02 1.836.05 3.135.097 3.435.215 1.346 1.585 2.692 3.87 1.815 2.131-.83 2.832-5.726-1.709-6.597-.028-2.87-.084-6.888-.097-10.425a20.91 20.91 0 0 0 1.397-.775c.734-.442 1.717-1.115 2.867-1.918 2.496 5.631 3.612 15.71-.098 26.856-.968 2.903-2.18 5.04-3.502 6.57-.83-1.64-1.206-4.034-.81-7.44.63-.272 1.281-.586 1.952-.946 2.436-1.319-1.986-5.155-3.115-1.924m1.426-8.603c1.634.326 1.785 1.36 1.972 2.367.305 1.598-1.964 2.326-1.958-.456 0-.429-.006-1.089-.014-1.911m4.207 32.212c-3.162-1.755-2.927-6.696 1.29-2.929.525.47 1.82 1.785 2.362 3.074-1.238.268-2.302.61-3.652-.145m11.263.866c-1.542 0-2.629-.36-3.765-1.082 1.393-1.229 3.225-2.262 4.285-2.544 2.69-.716 3.806 3.626-.52 3.626m4.681-2.513c-.738-2.974-3.737-4.197-9.602.63-2.27-1.796-3.96-4.34-6.036-5.142-1.052-.408-2.077-.306-2.9.122a24.55 24.55 0 0 0-2.423-3.924c.298-.177.596-.366.887-.571 1.66 1.66 4.354 2.47 8.56 1.545.265-.062.52-.124.762-.198.25.299.52.612.825.93 2.31 2.443 1.225 3.769 2.691 3.769 1.69 0 2.133-2.347 2.991-3.306.304-.34.768-.843 1.266-1.434 2.506 1.06 6.882 1.265 9.69-.612.886.973 1.836 1.782 2.839 2.414-2.866 3.285-5.37 4.947-9.55 5.777m10.72-7.171c-.928-.57-1.773-1.353-2.528-2.319 2.499-2.795 3.302-7.188 3.137-10.486.962.15 1.847.197 2.658.156.547 2.435 1.308 4.882 2.429 6.93-1.682 1.156-3.765 3.335-5.696 5.719m4.997-23.673c2.906 2.06 3.496 6.27.982 8.474-.407-2.741-.67-5.652-.982-8.474M60.35 55.69a7.25 7.25 0 0 1-2.52-.354c.807-1.04 3.813-4.333 5.005-5.08.947 1.334 2.097 2.401 3.516 3.034-1.218 1.238-3.177 2.305-6.001 2.4m7.205-4.107c-.942-.652-1.717-1.524-2.361-2.557 1.706-.468 3.565.085 2.36 2.557m4.832-13.799c-4.728-.741-5.821 5.944.637 4.7a8.328 8.328 0 0 0 1.848-.571c1.488 4.555-.755 12.383-5.738 10.506 2.67-4.605-1.858-6.447-4.728-4.855-.83-1.796-1.397-3.931-1.819-6.243 6.056-2.51 5.3-11.426-1.587-12.833-.49-3.945-1.189-7.562-2.63-10.085-.11-.19-.214-.381-.324-.557 1.722-.184 2.962-.749 3.841-1.47 3.73.055 7.621 2.469 8.561 5.488-4.816-.176-3.518 4.415-1.23 4.803 2.802.475 3.606-2.157 3.793-2.987 4.554 2.319 4.905 11.377 1.903 15.383-.72-.674-1.572-1.129-2.527-1.279m1.53 2.32a4.011 4.011 0 0 1-1.993.85c-3.358.428-1.364-3.013.982-1.72.388.216.728.509 1.01.87" mask="url(#b)"/></g></svg>